<?xml version="1.0" encoding="UTF-8" standalone="no"?><!DOCTYPE svg PUBLIC "-//W3C//DTD SVG 1.1//EN" "http://www.w3.org/Graphics/SVG/1.1/DTD/svg11.dtd"><svg width="100%" height="100%" viewBox="0 0 554 109" version="1.1" xmlns="http://www.w3.org/2000/svg" xmlns:xlink="http://www.w3.org/1999/xlink" xml:space="preserve" xmlns:serif="http://www.serif.com/" style="fill-rule:evenodd;clip-rule:evenodd;stroke-linejoin:round;stroke-miterlimit:2;"><path d="M237.608,108.866l0,-108.866l82.887,0l-27.217,54.433l27.217,54.433l-82.887,-0Zm104.227,-108.866l93.16,0l-0,76.082l-37.49,0l14.294,32.784l-69.964,-0l0,-108.866Zm-318.639,54.433l-23.196,-0l0,-54.433l102.062,0l-0,54.433l-23.196,-0l-0,54.433l-55.67,-0l-0,-54.433Zm482.876,-10.629l0,-43.804l46.933,0l0,108.866l-96.67,-0l0,-108.866l27.835,0l21.902,43.804Zm-289.51,-43.804l-93.16,-0l0,108.866l93.16,-0l-0,-108.866Z" style="fill:#242424;"/></svg>